<svg width="116" height="116" viewBox="0 0 116 116" fill="none" xmlns="http://www.w3.org/2000/svg">
<g clip-path="url(#clip0)">
<path d="M90.6144 54.1918C90.6144 53.9856 90.625 23.5607 90.625 23.5607L45.3125 0.90625L2.0818e-06 23.5625V53.5741C-0.0176981 72.3681 9.37579 89.9232 25.0219 100.336L45.3125 113.857L60.9435 103.445C69.3919 114.267 83.9857 118.187 96.7192 113.055C109.454 107.923 117.251 94.9793 115.835 81.3236C114.418 67.667 104.13 56.5999 90.6144 54.19V54.1918ZM45.3125 109.508L27.0335 97.3236C12.3946 87.5823 3.60642 71.1574 3.625 53.5741V25.8025L45.3125 4.95871L87 25.8025V53.775C86.3982 53.7387 85.8017 53.6829 85.1875 53.6829C84.5733 53.6829 83.975 53.7387 83.375 53.775C83.375 53.7077 83.375 28.038 83.375 28.038L45.3125 9.00852L7.25 28.0398V53.5741C7.23673 69.9441 15.4186 85.2335 29.0451 94.304L45.3125 105.143L57.1699 97.2422C57.677 98.3485 58.2496 99.4238 58.8841 100.462L45.3125 109.508ZM55.814 93.7916L45.3125 100.788L31.0576 91.2888C30.3541 90.8188 29.6726 90.3259 29 89.8205V73.6204H25.375V86.7788C23.3855 84.9344 21.5659 82.9139 19.9375 80.743V70.2105C19.9384 67.7183 21.6332 65.5456 24.0501 64.9385L36.342 61.8569C36.7368 65.7872 39.6334 69.0069 43.5 69.814V77.2454H47.125V69.814C50.9916 69.0078 53.8874 65.7872 54.2812 61.8569L62.3498 63.8835C54.9936 71.9734 52.5032 83.3688 55.814 93.7898V93.7916ZM36.25 39.1829H41.26C44.0576 39.1794 46.8206 38.5599 49.3526 37.3704H49.8438L54.375 43.4115V50.9642L48.3339 55.4954H42.2911L36.25 50.9642V39.1829ZM32.7755 35.5579C33.1427 33.2852 34.5897 31.332 36.658 30.3196C40.6671 28.5354 45.1842 28.2513 49.3853 29.5186L49.8022 30.1204H52.5625C53.5634 30.1204 54.375 30.932 54.375 31.9329V37.3704L51.6562 33.7454H48.51L48.1277 33.9357C45.994 34.9986 43.6434 35.5544 41.26 35.5579H32.7755ZM50.75 58.2142V60.9329C50.75 63.9358 48.3153 66.3704 45.3125 66.3704C42.3097 66.3704 39.875 63.9358 39.875 60.9329V58.2142L41.0839 59.1204H49.5411L50.75 58.2142ZM54.375 58.1434V55.4954L58 52.7767V31.9329C58 28.9292 55.5653 26.4954 52.5625 26.4954H51.3571C48.7348 24.9015 42.2061 24.5794 37.5819 26.0255C32.3967 27.299 28.815 32.0338 29 37.3704V39.1829H32.625V52.7767L36.25 55.4954V58.1345L23.1678 61.4241C19.1357 62.4304 16.3081 66.0554 16.3125 70.2105V75.1046C12.7406 68.4909 10.8715 61.0913 10.875 53.5741V30.2797L45.3125 13.061L79.75 30.2797V53.5741C79.75 53.782 79.7376 53.9891 79.7358 54.1953C74.4497 55.1405 69.5051 57.4566 65.3951 60.9126L54.375 58.1434ZM85.1875 111.683C70.1724 111.683 58 99.5105 58 84.4954C58 69.4795 70.1724 57.3079 85.1875 57.3079C100.203 57.3079 112.375 69.4795 112.375 84.4954C112.358 99.5034 100.196 111.665 85.1875 111.683Z" fill="#3680C5"/>
<path d="M94.25 31.933H116V35.558H94.25V31.933Z" fill="#3680C5"/>
<path d="M94.25 39.183H108.75V42.808H94.25V39.183Z" fill="#3680C5"/>
<path d="M94.25 46.433H101.5V50.058H94.25V46.433Z" fill="#3680C5"/>
<path d="M78.5136 83.2139L72.107 76.8064L61.8533 87.0584L78.5136 103.719L106.709 75.5232L96.4554 65.2721L78.5136 83.2139ZM78.5136 98.5927L66.9793 87.0584L72.107 81.9324L78.5136 88.339L96.4572 70.3954L101.585 75.5214L78.5136 98.5927Z" fill="#3680C5"/>
</g>
<defs>
<clipPath id="clip0">
<rect width="116" height="116" fill="white"/>
</clipPath>
</defs>
</svg>
