<svg width="26" height="26" viewBox="0 0 26 26" fill="none" xmlns="http://www.w3.org/2000/svg">
<g clip-path="url(#clip0)">
<path d="M13 3.80859C14.26 3.80859 15.2852 4.83374 15.2852 6.09375C15.2852 7.35376 14.26 8.37891 13 8.37891C11.74 8.37891 10.7148 7.35376 10.7148 6.09375C10.7148 4.83374 11.74 3.80859 13 3.80859Z" fill="black"/>
<path d="M13 0C16.3601 0 19.0938 2.73366 19.0938 6.09375C19.0938 7.24605 18.7702 8.36859 18.1579 9.33998L13 17.5703L7.84213 9.33998C7.22978 8.36859 6.90625 7.24605 6.90625 6.09375C6.90625 2.73366 9.63991 0 13 0ZM13 9.90234C15.0999 9.90234 16.8086 8.19363 16.8086 6.09375C16.8086 3.99387 15.0999 2.28516 13 2.28516C10.9001 2.28516 9.19141 3.99387 9.19141 6.09375C9.19141 8.19363 10.9001 9.90234 13 9.90234Z" fill="black"/>
<path d="M16.7072 26H9.29536L9.88113 21.3789H16.1361L16.7072 26Z" fill="black"/>
<path d="M15.9457 19.8555H13.3602L15.5178 16.4335L15.9457 19.8555Z" fill="black"/>
<path d="M8.53992 19.8555H2.5388L4.4431 15.2852H9.12608L8.53992 19.8555Z" fill="black"/>
<path d="M23.4611 19.8555H17.4809L16.9096 15.2852H21.5568L23.4611 19.8555Z" fill="black"/>
<path d="M12.6398 19.8555H10.0766L10.5096 16.4773L12.6398 19.8555Z" fill="black"/>
<path d="M17.6713 21.3789H24.0959L26 26H18.2424L17.6713 21.3789Z" fill="black"/>
<path d="M1.90402 21.3789H8.34471L7.75874 26H-7.62939e-05L1.90402 21.3789Z" fill="black"/>
</g>
<defs>
<clipPath id="clip0">
<rect width="26" height="26" fill="white" transform="matrix(-1 0 0 1 26 0)"/>
</clipPath>
</defs>
</svg>
