<svg width="19" height="19" viewBox="0 0 19 19" fill="none" xmlns="http://www.w3.org/2000/svg">
<path d="M14.1733 18.6963L14.8 18.0739C14.9957 17.8781 15.1035 17.6175 15.1035 17.339C15.1035 17.0606 14.9957 16.7997 14.8 16.6038L7.7001 9.50425L14.8079 2.39649C15.0036 2.20093 15.1112 1.94002 15.1112 1.66166C15.1112 1.3833 15.0036 1.12224 14.8079 0.926528L14.185 0.304002C13.78 -0.101334 13.1202 -0.101334 12.7152 0.304002L4.22214 8.76664C4.02658 8.9622 3.88879 9.2228 3.88879 9.50363V9.50687C3.88879 9.78539 4.02673 10.046 4.22214 10.2415L12.6922 18.6963C12.8878 18.8922 13.1562 18.9997 13.4346 19C13.7131 19 13.9779 18.8922 14.1733 18.6963Z" fill="#000000"/>
</svg>
