<svg width="29" height="29" viewBox="0 0 29 29" fill="none" xmlns="http://www.w3.org/2000/svg">
<rect width="29" height="29" transform="matrix(-1 0 0 1 29 0)" fill="white"/>
<path d="M15.5 2C22.9439 2 29 8.05607 29 15.5C29 22.9439 22.9439 29 15.5 29C8.05607 29 2 22.9439 2 15.5C2 8.05607 8.05607 2 15.5 2ZM15.5 27.418C22.0716 27.418 27.418 22.0716 27.418 15.5C27.418 8.9284 22.0716 3.58203 15.5 3.58203C8.9284 3.58203 3.58203 8.9284 3.58203 15.5C3.58203 22.0716 8.9284 27.418 15.5 27.418Z" fill="black"/>
<path d="M15.5 16C13.0187 16 11 13.9813 11 11.5C11 9.0187 13.0187 7 15.5 7C17.9813 7 20 9.0187 20 11.5C20 13.9813 17.9813 16 15.5 16ZM15.5 8.28571C13.7276 8.28571 12.2857 9.72764 12.2857 11.5C12.2857 13.2724 13.7276 14.7143 15.5 14.7143C17.2724 14.7143 18.7143 13.2724 18.7143 11.5C18.7143 9.72764 17.2724 8.28571 15.5 8.28571Z" fill="black"/>
<path d="M7.3439 19.8654C8.30789 18.6799 9.69427 18 11.1475 18H19.8526C21.3058 18 22.6922 18.6799 23.6561 19.8654L24 20.2883L23.7434 20.7791C22.0596 23.9995 18.9009 26 15.5 26C12.0991 26 8.94046 23.9995 7.25661 20.7791L7 20.2883L7.3439 19.8654ZM15.5 24.4211C18.1955 24.4211 20.7115 22.937 22.1924 20.5108C21.5419 19.9133 20.7136 19.5789 19.8526 19.5789H11.1475C10.2865 19.5789 9.45817 19.9133 8.80761 20.5108C10.2885 22.937 12.8045 24.4211 15.5 24.4211V24.4211Z" fill="black"/>
</svg>
