<svg width="30" height="30" viewBox="0 0 30 30" fill="none" xmlns="http://www.w3.org/2000/svg">
<path d="M18.88 29H23.02C23.142 29 23.259 28.9509 23.3452 28.8636L28.8652 23.2774C28.9515 23.1901 29 23.0717 29 22.9483V4.32759C28.9985 3.04273 27.9696 2.00154 26.7 2H8.3C7.03038 2.00154 6.00152 3.04273 6 4.32759V12.2414C6 12.4985 6.20595 12.7069 6.46 12.7069C6.71405 12.7069 6.92 12.4985 6.92 12.2414V4.32759C6.92 3.55629 7.53785 2.93103 8.3 2.93103H26.7C27.4622 2.93103 28.08 3.55629 28.08 4.32759V22.4828H24.86C23.5904 22.4843 22.5615 23.5255 22.56 24.8103V28.069H18.88C18.6259 28.069 18.42 28.2774 18.42 28.5345C18.42 28.7916 18.6259 29 18.88 29ZM24.86 23.4138H27.4296L23.48 27.4107V24.8103C23.48 24.0391 24.0978 23.4138 24.86 23.4138Z" fill="black"/>
<path d="M8.25 4.99999H9.25C9.52614 4.99999 9.75 4.77613 9.75 4.49998C9.75 4.22384 9.52614 3.99998 9.25 3.99998H8.25C7.97386 3.99998 7.75 4.22384 7.75 4.49998C7.75 4.77613 7.97386 4.99999 8.25 4.99999Z" fill="black"/>
<path d="M25.5312 4H11.4688C11.2099 4 11 4.22386 11 4.5C11 4.77614 11.2099 5 11.4688 5H25.5312C25.7901 5 26 4.77614 26 4.5C26 4.22386 25.7901 4 25.5312 4Z" fill="black"/>
<path d="M8.25 7.99998H9.25C9.52614 7.99998 9.75 7.77613 9.75 7.49998C9.75 7.22384 9.52614 6.99998 9.25 6.99998H8.25C7.97386 6.99998 7.75 7.22384 7.75 7.49998C7.75 7.77613 7.97386 7.99998 8.25 7.99998Z" fill="black"/>
<path d="M11.6 8H25.4C25.7314 8 26 7.77614 26 7.5C26 7.22386 25.7314 7 25.4 7H11.6C11.2686 7 11 7.22386 11 7.5C11 7.77614 11.2686 8 11.6 8Z" fill="black"/>
<path d="M8.25 11H9.25C9.52614 11 9.75 10.7761 9.75 10.5C9.75 10.2238 9.52614 9.99998 9.25 9.99998H8.25C7.97386 9.99998 7.75 10.2238 7.75 10.5C7.75 10.7761 7.97386 11 8.25 11Z" fill="black"/>
<path d="M11.8333 11H25.1667C25.6269 11 26 10.7761 26 10.5C26 10.2239 25.6269 10 25.1667 10H11.8333C11.3731 10 11 10.2239 11 10.5C11 10.7761 11.3731 11 11.8333 11Z" fill="black"/>
<path d="M26 12.375C26 12.1679 25.7761 12 25.5 12C25.2239 12 25 12.1679 25 12.375V17.625C25 17.8321 25.2239 18 25.5 18C25.7761 18 26 17.8321 26 17.625V12.375Z" fill="black"/>
<path d="M25.5 19C25.2239 19 25 19.2239 25 19.5V20.5C25 20.7761 25.2239 21 25.5 21C25.7761 21 26 20.7761 26 20.5V19.5C26 19.2239 25.7761 19 25.5 19Z" fill="black"/>
<path d="M12.3666 27.9808C12.4534 28.0064 12.5466 28.0064 12.6334 27.9808C18.8086 26.1612 21 22.0059 21 19.0004C21 16.1962 19.0356 14 16.5316 14C15.0331 14.0028 13.5917 14.5289 12.4998 15.4719C11.4078 14.529 9.96649 14.0028 8.46794 14C5.96266 14 4 16.1962 4 19.0004C4 22.0059 6.19097 26.1616 12.3666 27.9808ZM8.46794 14.8021C9.87214 14.8119 11.2092 15.3555 12.1615 16.3037C12.2442 16.3968 12.368 16.451 12.4989 16.4513C12.6301 16.4513 12.7543 16.3971 12.8372 16.3037C13.7893 15.3555 15.1263 14.812 16.5303 14.8021C18.5462 14.8021 20.1256 16.647 20.1256 19.0004C20.1256 21.7147 18.1245 25.4702 12.4985 27.1771C6.87415 25.4702 4.87307 21.7147 4.87307 19.0004C4.87307 16.6462 6.45202 14.8021 8.46794 14.8021V14.8021Z" fill="black"/>
</svg>
