<svg width="31" height="31" viewBox="0 0 31 31" fill="none" xmlns="http://www.w3.org/2000/svg">
<path d="M9.98787 20.0413H9.98929C9.99047 20.0413 9.99165 20.041 9.99284 20.041H26.459C26.8644 20.041 27.2208 19.7721 27.3322 19.3823L30.965 6.66749C31.0433 6.39337 30.9884 6.09868 30.8169 5.87115C30.6452 5.64363 30.3768 5.50977 30.0918 5.50977H7.89333L7.2441 2.58814C7.15163 2.17259 6.78314 1.87695 6.35742 1.87695H0.908203C0.406563 1.87695 0 2.28352 0 2.78516C0 3.2868 0.406563 3.69336 0.908203 3.69336H5.62897C5.74391 4.21108 8.73578 17.6747 8.90796 18.4493C7.94276 18.8689 7.26562 19.8312 7.26562 20.9492C7.26562 22.4515 8.48792 23.6738 9.99023 23.6738H26.459C26.9606 23.6738 27.3672 23.2673 27.3672 22.7656C27.3672 22.264 26.9606 21.8574 26.459 21.8574H9.99023C9.48954 21.8574 9.08203 21.4499 9.08203 20.9492C9.08203 20.4492 9.48812 20.0424 9.98787 20.0413ZM28.8877 7.32617L25.7738 18.2246H10.7187L8.29681 7.32617H28.8877Z" fill="black"/>
<path d="M9.08195 26.3984C9.08195 27.9008 10.3042 29.123 11.8066 29.123C13.3089 29.123 14.5312 27.9008 14.5312 26.3984C14.5312 24.8961 13.3089 23.6738 11.8066 23.6738C10.3042 23.6738 9.08195 24.8961 9.08195 26.3984ZM11.8066 25.4902C12.3073 25.4902 12.7148 25.8977 12.7148 26.3984C12.7148 26.8991 12.3073 27.3066 11.8066 27.3066C11.3059 27.3066 10.8984 26.8991 10.8984 26.3984C10.8984 25.8977 11.3059 25.4902 11.8066 25.4902Z" fill="black"/>
<path d="M21.9178 26.3984C21.9178 27.9008 23.1401 29.123 24.6424 29.123C26.1447 29.123 27.367 27.9008 27.367 26.3984C27.367 24.8961 26.1447 23.6738 24.6424 23.6738C23.1401 23.6738 21.9178 24.8961 21.9178 26.3984ZM24.6424 25.4902C25.1431 25.4902 25.5506 25.8977 25.5506 26.3984C25.5506 26.8991 25.1431 27.3066 24.6424 27.3066C24.1417 27.3066 23.7342 26.8991 23.7342 26.3984C23.7342 25.8977 24.1417 25.4902 24.6424 25.4902Z" fill="black"/>
</svg>
