<svg width="29" height="29" viewBox="0 0 29 29" fill="none" xmlns="http://www.w3.org/2000/svg">
<path d="M14.4955 14C16.4383 14 18 12.43 18 10.5006C18.0022 8.56546 16.4383 7 14.4955 7C12.5662 7 11 8.56546 11 10.5006C11 12.4323 12.5662 14 14.4955 14Z" fill="#000000"/>
<path d="M17.2309 15H11.7746C10.799 15 10 15.9355 10 17.0831V22.8154C10 22.8784 10.0307 22.9346 10.034 23H18.9682C18.9747 22.9347 19 22.8785 19 22.8154V17.0831C19.0032 15.9355 18.2042 15 17.2309 15Z" fill="#000000"/>
<path d="M24.496 15C25.8857 15 27 13.8821 27 12.501C27 11.1199 25.8857 10 24.496 10C23.1164 10 22 11.1199 22 12.501C21.997 13.8811 23.1164 15 24.496 15Z" fill="#000000"/>
<path d="M26.6234 16H22.383C21.6219 16 21 16.8181 21 17.8251V22.8361C21 22.8899 21.0223 22.9412 21.0255 23H27.9755C27.9787 22.9412 28 22.8899 28 22.8361V17.8251C28.0032 16.8181 27.3824 16 26.6234 16Z" fill="#000000"/>
<path d="M4.49697 15C5.88462 15 7 13.8821 7 12.501C7 11.1199 5.88462 10 4.49697 10C3.11635 10 2 11.1199 2 12.501C2 13.8821 3.11635 15 4.49697 15Z" fill="#000000"/>
<path d="M6.62334 16H2.37872C1.61975 16 1 16.8181 1 17.8251V22.8361C1 22.8899 1.02232 22.9412 1.02656 23H7.97659C7.97979 22.9412 7.99999 22.8899 7.99999 22.8361V17.8251C8.00211 16.8181 7.38128 16 6.62334 16Z" fill="#000000"/>
</svg>
