<svg width="27" height="27" viewBox="0 0 27 27" fill="none" xmlns="http://www.w3.org/2000/svg">
<path d="M14.609 24.9781H5.90223C5.36821 24.9781 4.93484 24.5252 4.93484 23.9672V5.77002C4.93484 5.21197 5.36826 4.75909 5.90223 4.75909H14.609C15.144 4.75909 15.5764 4.30721 15.5764 3.74816C15.5764 3.18911 15.144 2.73713 14.609 2.73713H5.90223C4.30213 2.73713 3 4.09791 3 5.77002V23.9672C3 25.6393 4.30213 27 5.90223 27H14.609C15.144 27 15.5764 26.5481 15.5764 25.9891C15.5764 25.43 15.144 24.9781 14.609 24.9781Z" fill="black"/>
<path d="M25.7035 13.9955L19.6537 8.2745C19.2637 7.90454 18.6328 7.90934 18.2467 8.28406C17.8607 8.65877 17.8646 9.26233 18.2567 9.63229L22.5801 13.7209H10.995C10.4448 13.7209 10 14.147 10 14.6743C10 15.2016 10.4448 15.6278 10.995 15.6278H22.5801L18.2567 19.7164C17.8647 20.0864 17.8617 20.6899 18.2467 21.0646C18.4418 21.2534 18.6985 21.3488 18.9552 21.3488C19.208 21.3488 19.4607 21.2572 19.6537 21.0741L25.7035 15.3532C25.8925 15.1739 26 14.9298 26 14.6743C26 14.4188 25.8935 14.1757 25.7035 13.9955Z" fill="black"/>
</svg>
