<svg width="38" height="40" viewBox="0 0 38 40" fill="none" xmlns="http://www.w3.org/2000/svg">
<path d="M7.82353 29.2513V4.70587H36.3235V29.2513C36.3235 32.2636 33.4878 34.7059 29.9902 34.7059" stroke="black" stroke-width="2" stroke-miterlimit="10" stroke-linecap="round" stroke-linejoin="round"/>
<path d="M23.6941 30H1.89999C1.89999 32.5988 4.90255 34.7059 8.60588 34.7059H30.4C26.6967 34.7059 23.6941 32.5988 23.6941 30Z" stroke="black" stroke-width="2" stroke-miterlimit="10" stroke-linecap="round" stroke-linejoin="round"/>
<path d="M17.1 17H31.35" stroke="black" stroke-width="2" stroke-miterlimit="10" stroke-linejoin="round"/>
<path d="M12.35 17H14.5853" stroke="black" stroke-width="2" stroke-miterlimit="10" stroke-linejoin="round"/>
<path d="M17.1 23H31.35" stroke="black" stroke-width="2" stroke-miterlimit="10" stroke-linejoin="round"/>
<path d="M12.35 23H14.5853" stroke="black" stroke-width="2" stroke-miterlimit="10" stroke-linejoin="round"/>
<path d="M17.1 11H31.35" stroke="black" stroke-width="2" stroke-miterlimit="10" stroke-linejoin="round"/>
<path d="M12.2941 10.5882H14.5294" stroke="black" stroke-width="2" stroke-miterlimit="10" stroke-linejoin="round"/>
<path d="M23.9177 30H2.85001C2.85001 32.7613 5.75248 35 9.33236 35H30.4C26.8201 35 23.9177 32.7613 23.9177 30Z" fill="black"/>
</svg>
