<svg width="31" height="31" viewBox="0 0 31 31" fill="none" xmlns="http://www.w3.org/2000/svg">
<path d="M31 21.626C31 17.3989 28.1518 13.7058 24.1354 12.5929C23.883 6.70914 19.0181 2 13.0732 2C6.96734 2 2 6.96734 2 13.0732C2 15.0632 2.52968 17.0007 3.53549 18.7017L2.04071 24.1056L7.4448 22.611C9.00839 23.5356 10.7722 24.0564 12.5927 24.135C13.7054 28.1516 17.3987 31 21.626 31C23.3132 31 24.9541 30.5506 26.3957 29.6968L30.9591 30.9591L29.6968 26.3957C30.5506 24.9541 31 23.3132 31 21.626V21.626ZM7.71296 20.7737L4.47781 21.6687L5.37277 18.4335L5.16878 18.1145C4.20744 16.6104 3.69922 14.8672 3.69922 13.0732C3.69922 7.90434 7.90434 3.69922 13.0732 3.69922C18.2421 3.69922 22.4473 7.90434 22.4473 13.0732C22.4473 18.2421 18.2421 22.4473 13.0732 22.4473C11.2793 22.4473 9.5363 21.939 8.03201 20.9777L7.71296 20.7737ZM28.5222 28.5222L26.1216 27.858L25.801 28.0666C24.5582 28.874 23.1143 29.3008 21.626 29.3008C18.3036 29.3008 15.3842 27.1526 14.3499 24.0724C19.4373 23.4858 23.4858 19.4373 24.0726 14.3496C27.1526 15.3842 29.3008 18.3036 29.3008 21.626C29.3008 23.1143 28.874 24.5582 28.0666 25.801L27.858 26.1216L28.5222 28.5222Z" fill="#000000"/>
<path d="M11.9287 17.4082H13.7451V19.2246H11.9287V17.4082Z" fill="#000000"/>
<path d="M14.6533 10.082C14.6533 10.5979 14.4433 11.074 14.062 11.4228L11.9287 13.3755V15.5918H13.7451V14.1753L15.2884 12.7629C16.039 12.0758 16.4697 11.0988 16.4697 10.082C16.4697 8.07878 14.8402 6.44922 12.8369 6.44922C10.8337 6.44922 9.2041 8.07878 9.2041 10.082H11.0205C11.0205 9.08041 11.8353 8.26562 12.8369 8.26562C13.8385 8.26562 14.6533 9.08041 14.6533 10.082Z" fill="#000000"/>
</svg>
