<svg width="27" height="27" viewBox="0 0 27 27" fill="none" xmlns="http://www.w3.org/2000/svg">
<path d="M24.537 5.06667C24.6598 5.06667 24.7776 5.02628 24.8644 4.95439C24.9512 4.8825 25 4.785 25 4.68333V3.91667C24.9993 3.40851 24.7552 2.92133 24.3212 2.56201C23.8873 2.20269 23.2989 2.00057 22.6852 2H6.01852C5.4048 2.00057 4.81642 2.20269 4.38246 2.56201C3.9485 2.92133 3.70439 3.40851 3.7037 3.91667V21.1667H4.62963V3.91667C4.63006 3.61178 4.77652 3.31948 5.0369 3.10389C5.29727 2.8883 5.65029 2.76702 6.01852 2.76667H20.8344C20.5327 3.09798 20.3698 3.50174 20.3704 3.91667V23.0833C20.3704 23.3883 20.224 23.6808 19.9636 23.8965C19.7031 24.1122 19.3498 24.2333 18.9815 24.2333C18.6131 24.2333 18.2599 24.1122 17.9994 23.8965C17.7389 23.6808 17.5926 23.3883 17.5926 23.0833V22.3167C17.5926 22.215 17.5438 22.1175 17.457 22.0456C17.3702 21.9737 17.2524 21.9333 17.1296 21.9333H0.462963C0.340178 21.9333 0.222421 21.9737 0.135599 22.0456C0.0487763 22.1175 0 22.215 0 22.3167V23.0833C0.000689267 23.5915 0.244792 24.0787 0.678755 24.438C1.11272 24.7973 1.7011 24.9994 2.31481 25H18.9815C19.5952 24.9994 20.1836 24.7973 20.6175 24.438C21.0515 24.0787 21.2956 23.5915 21.2963 23.0833V5.06667H24.537ZM2.31481 24.2333C1.94659 24.233 1.59356 24.1117 1.33318 23.8961C1.0728 23.6805 0.926339 23.3882 0.925926 23.0833V22.7H16.6667V23.0833C16.6661 23.4983 16.829 23.902 17.1307 24.2333H2.31481ZM22.6852 2.76667C23.0534 2.76702 23.4064 2.8883 23.6668 3.10389C23.9272 3.31948 24.0736 3.61178 24.0741 3.91667V4.3H21.2963V3.91667C21.2967 3.61178 21.4432 3.31948 21.7036 3.10389C21.9639 2.8883 22.317 2.76702 22.6852 2.76667V2.76667Z" fill="black"/>
<path d="M9.7031 6.48438C9.70088 6.65293 9.73828 6.81964 9.81227 6.9711C9.88626 7.12256 9.99477 7.25453 10.1291 7.35639C10.1084 7.52329 10.1261 7.69271 10.1807 7.85176C10.2354 8.0108 10.3256 8.15528 10.4445 8.2742C10.5634 8.39312 10.7079 8.48335 10.867 8.53801C11.026 8.59267 11.1954 8.61033 11.3623 8.58964C11.4657 8.72229 11.598 8.82961 11.7491 8.90343C11.9002 8.97725 12.0662 9.01562 12.2343 9.01562C12.4025 9.01562 12.5685 8.97725 12.7196 8.90343C12.8707 8.82961 13.003 8.72229 13.1064 8.58964C13.2733 8.61034 13.4427 8.59269 13.6017 8.53803C13.7608 8.48337 13.9053 8.39315 14.0242 8.27423C14.1431 8.15531 14.2333 8.01082 14.288 7.85177C14.3426 7.69272 14.3603 7.52329 14.3396 7.35639C14.4723 7.25302 14.5796 7.12074 14.6534 6.96963C14.7272 6.81851 14.7656 6.65255 14.7656 6.48438C14.7656 6.3162 14.7272 6.15023 14.6534 5.99912C14.5796 5.84801 14.4723 5.71573 14.3396 5.61236C14.3603 5.44546 14.3426 5.27603 14.288 5.11698C14.2333 4.95793 14.1431 4.81344 14.0242 4.69452C13.9053 4.5756 13.7608 4.48538 13.6017 4.43072C13.4427 4.37606 13.2733 4.35841 13.1064 4.37911C13.003 4.24646 12.8707 4.13914 12.7196 4.06532C12.5685 3.9915 12.4025 3.95313 12.2343 3.95313C12.0662 3.95313 11.9002 3.9915 11.7491 4.06532C11.598 4.13914 11.4657 4.24646 11.3623 4.37911C11.1954 4.35841 11.026 4.37606 10.8669 4.43072C10.7079 4.48538 10.5634 4.5756 10.4445 4.69452C10.3256 4.81344 10.2353 4.95793 10.1807 5.11698C10.126 5.27603 10.1084 5.44546 10.1291 5.61236C9.99477 5.71422 9.88626 5.84619 9.81227 5.99765C9.73828 6.14911 9.70088 6.31582 9.7031 6.48438ZM10.7425 6.23948C10.8084 6.22459 10.8697 6.1941 10.9214 6.15058C10.973 6.10706 11.0135 6.05178 11.0393 5.98938C11.0651 5.92699 11.0756 5.8593 11.0699 5.79202C11.0641 5.72473 11.0423 5.65981 11.0062 5.60271C10.9758 5.55453 10.9627 5.49745 10.969 5.44083C10.9753 5.38421 11.0007 5.33142 11.041 5.29114C11.0813 5.25086 11.1341 5.22548 11.1907 5.21916C11.2473 5.21285 11.3044 5.22598 11.3526 5.2564C11.4097 5.29246 11.4746 5.31429 11.5419 5.32005C11.6092 5.32581 11.6769 5.31533 11.7392 5.28949C11.8016 5.26365 11.8569 5.22322 11.9004 5.17158C11.944 5.11993 11.9744 5.0586 11.9893 4.99273C12.0019 4.93716 12.033 4.8875 12.0775 4.85193C12.122 4.81636 12.1773 4.79698 12.2342 4.79698C12.2912 4.79698 12.3465 4.81636 12.391 4.85193C12.4355 4.8875 12.4666 4.93716 12.4791 4.99273C12.494 5.0586 12.5245 5.11993 12.568 5.17158C12.6115 5.22322 12.6668 5.26365 12.7292 5.28949C12.7916 5.31533 12.8593 5.32581 12.9266 5.32005C12.9939 5.31429 13.0588 5.29246 13.1159 5.2564C13.1641 5.22598 13.2212 5.21285 13.2778 5.21916C13.3344 5.22548 13.3872 5.25086 13.4275 5.29114C13.4678 5.33142 13.4931 5.38421 13.4995 5.44083C13.5058 5.49745 13.4927 5.55453 13.4623 5.60271C13.4262 5.65981 13.4044 5.72473 13.3986 5.79202C13.3929 5.8593 13.4033 5.92699 13.4292 5.98938C13.455 6.05178 13.4954 6.10706 13.5471 6.15058C13.5987 6.1941 13.6601 6.22459 13.7259 6.23948C13.7815 6.25203 13.8312 6.28311 13.8667 6.32762C13.9023 6.37212 13.9217 6.4274 13.9217 6.48438C13.9217 6.54135 13.9023 6.59663 13.8667 6.64113C13.8312 6.68564 13.7815 6.71672 13.7259 6.72927C13.6601 6.74416 13.5987 6.77465 13.5471 6.81817C13.4954 6.86169 13.455 6.91697 13.4292 6.97937C13.4033 7.04176 13.3929 7.10945 13.3986 7.17673C13.4044 7.24402 13.4262 7.30894 13.4623 7.36604C13.4927 7.41422 13.5058 7.47132 13.4995 7.52795C13.4932 7.58459 13.4678 7.63739 13.4275 7.67768C13.3872 7.71797 13.3344 7.74335 13.2777 7.74965C13.2211 7.75595 13.164 7.74279 13.1158 7.71235C13.0588 7.6763 12.9938 7.65448 12.9266 7.64873C12.8593 7.64298 12.7916 7.65346 12.7292 7.67929C12.6668 7.70513 12.6115 7.74556 12.568 7.7972C12.5245 7.84883 12.494 7.91016 12.4791 7.97602C12.4666 8.03159 12.4355 8.08125 12.391 8.11682C12.3465 8.15239 12.2912 8.17177 12.2342 8.17177C12.1773 8.17177 12.122 8.15239 12.0775 8.11682C12.033 8.08125 12.0019 8.03159 11.9893 7.97602C11.9744 7.91016 11.944 7.84883 11.9004 7.7972C11.8569 7.74556 11.8017 7.70513 11.7393 7.67929C11.6769 7.65346 11.6092 7.64298 11.5419 7.64873C11.4746 7.65448 11.4097 7.6763 11.3526 7.71235C11.3045 7.74279 11.2474 7.75595 11.1907 7.74965C11.1341 7.74335 11.0813 7.71797 11.041 7.67768C11.0007 7.63739 10.9753 7.58459 10.969 7.52795C10.9626 7.47132 10.9758 7.41422 11.0062 7.36604C11.0423 7.30894 11.0641 7.24402 11.0699 7.17673C11.0756 7.10945 11.0651 7.04176 11.0393 6.97937C11.0135 6.91697 10.973 6.86169 10.9214 6.81817C10.8697 6.77465 10.8084 6.74416 10.7425 6.72927C10.687 6.71672 10.6373 6.68564 10.6017 6.64113C10.5662 6.59663 10.5468 6.54135 10.5468 6.48438C10.5468 6.4274 10.5662 6.37212 10.6017 6.32762C10.6373 6.28311 10.687 6.25203 10.7425 6.23948Z" fill="black"/>
<path d="M10.125 11.5469H14.3438V12.3906H10.125V11.5469Z" fill="black"/>
<path d="M11.3906 9.85938H15.6094V10.7031H11.3906V9.85938Z" fill="black"/>
<path d="M8.85938 9.85938H10.5469V10.7031H8.85938V9.85938Z" fill="black"/>
<path d="M8.01562 14.6562H18.1406V15.5H8.01562V14.6562Z" fill="black"/>
<path d="M6.32812 14.6562H7.17188V15.5H6.32812V14.6562Z" fill="black"/>
<path d="M8.01562 18.0312H18.1406V18.875H8.01562V18.0312Z" fill="black"/>
<path d="M6.32812 18.0312H7.17188V18.875H6.32812V18.0312Z" fill="black"/>
</svg>
