<svg width="26" height="26" viewBox="0 0 26 26" fill="none" xmlns="http://www.w3.org/2000/svg">
<g clip-path="url(#clip0)">
<path d="M24.972 16.9597C24.7531 17.225 24.4944 17.4638 24.2092 17.6561V20.6276H24.5806C25.3633 20.6276 25.9934 19.9974 26 19.2214V15.6332L24.972 16.9597Z" fill="black"/>
<path d="M19.0693 10.6122H22.5618C22.6647 10.6122 22.7737 10.599 22.8827 10.5725V6.77857C22.8827 5.99592 22.3016 5.37245 21.5934 5.37245H3.29533C2.58108 5.37245 2.00605 6.00255 2 6.77857V21.9872C2.00605 22.7699 2.58108 23.4066 3.29533 23.4133H21.5934C22.3076 23.4066 22.8827 22.7699 22.8827 21.9872L22.8766 18.1337C22.7737 18.1469 22.6647 18.1602 22.5558 18.1668H19.0693C17.1687 18.1602 15.6252 16.4689 15.6252 14.3862C15.6252 12.3036 17.1687 10.6122 19.0693 10.6122Z" fill="black"/>
<path d="M24.6353 2.58673H5.35826C4.6058 2.59336 4 3.2301 4 4.01275V4.04591H21.6446C23.0985 4.04591 24.2782 5.26632 24.2782 6.77857V9.55102L26 7.24285V4.01275C25.9936 3.2301 25.3878 2.59336 24.6353 2.58673Z" fill="black"/>
<path d="M25.9933 9.41173L24.9652 10.7383C24.6668 11.123 24.2821 11.4347 23.8443 11.6403C23.4331 11.8393 22.9821 11.9388 22.5244 11.9388H18.704C17.3509 11.9454 16.2566 13.0398 16.2566 14.3929C16.2566 15.7459 17.3509 16.8403 18.704 16.8469H22.5311C23.0749 16.8403 23.5923 16.5883 23.9239 16.1571L25.9999 13.4643L25.9933 9.41173ZM20.1897 15.0561H18.5979C18.2331 15.0561 17.9346 14.7576 17.9346 14.3929C17.9346 14.0281 18.2331 13.7296 18.5979 13.7296H20.1897C20.5545 13.7296 20.853 14.0281 20.853 14.3929C20.853 14.7576 20.5545 15.0561 20.1897 15.0561Z" fill="black"/>
</g>
<defs>
<clipPath id="clip0">
<rect width="26" height="26" fill="white"/>
</clipPath>
</defs>
</svg>
