<svg width="31" height="31" viewBox="0 0 31 31" fill="none" xmlns="http://www.w3.org/2000/svg">
<path d="M29.7083 16.7649H1.29167C0.578664 16.7649 0 16.1862 0 15.4732C0 14.7602 0.578664 14.1815 1.29167 14.1815H29.7083C30.4213 14.1815 31 14.7602 31 15.4732C31 16.1862 30.4213 16.7649 29.7083 16.7649Z" fill="white"/>
<path d="M29.7083 6.86196H1.29167C0.578664 6.86196 0 6.2833 0 5.57029C0 4.85729 0.578664 4.27863 1.29167 4.27863H29.7083C30.4213 4.27863 31 4.85729 31 5.57029C31 6.2833 30.4213 6.86196 29.7083 6.86196Z" fill="white"/>
<path d="M29.7083 26.6674H1.29167C0.578664 26.6674 0 26.0888 0 25.3758C0 24.6628 0.578664 24.0841 1.29167 24.0841H29.7083C30.4213 24.0841 31 24.6628 31 25.3758C31 26.0888 30.4213 26.6674 29.7083 26.6674Z" fill="white"/>
</svg>
