<svg width="24" height="24" viewBox="0 0 24 24" fill="none" xmlns="http://www.w3.org/2000/svg">
<path d="M12.6325 17.0884C11.9462 17.0884 11.3907 17.6603 11.3907 18.3466C11.3907 19.0165 11.9299 19.6047 12.6325 19.6047C13.335 19.6047 13.8906 19.0165 13.8906 18.3466C13.8906 17.6603 13.3187 17.0884 12.6325 17.0884Z" fill="#000000"/>
<path d="M12.8448 7.56259C10.639 7.56259 9.62601 8.8697 9.62601 9.75203C9.62601 10.3893 10.1652 10.6834 10.6064 10.6834C11.4886 10.6834 11.1292 9.42526 12.7958 9.42526C13.6128 9.42526 14.2663 9.78475 14.2663 10.5363C14.2663 11.4187 13.3513 11.9252 12.8121 12.3827C12.3383 12.7912 11.7174 13.4611 11.7174 14.8663C11.7174 15.7159 11.9461 15.961 12.6161 15.961C13.4167 15.961 13.5801 15.6016 13.5801 15.2911C13.5801 14.4415 13.5965 13.9513 14.4951 13.2487C14.9362 12.9056 16.3251 11.7945 16.3251 10.2586C16.3251 8.7227 14.9362 7.56259 12.8448 7.56259Z" fill="#000000"/>
<path d="M13 2C6.92061 2 2 6.91979 2 13V23.1406C2 23.6153 2.38474 24 2.85938 24H13C19.0793 24 24 19.0802 24 13C24 6.92061 19.0802 2 13 2ZM13 22.2812H3.71875V13C3.71875 7.87052 7.86983 3.71875 13 3.71875C18.1295 3.71875 22.2812 7.86983 22.2812 13C22.2812 18.1295 18.1302 22.2812 13 22.2812Z" fill="#000000"/>
</svg>
